{
    "asset" : {
        "generator" : "Khronos glTF Blender I/O v3.4.50",
        "version" : "2.0"
    },
    "scene" : 0,
    "scenes" : [
        {
            "name" : "Scene",
            "nodes" : [
                5
            ]
        }
    ],
    "nodes" : [
        {
            "mesh" : 0,
            "name" : "Body304"
        },
        {
            "mesh" : 1,
            "name" : "Body678"
        },
        {
            "mesh" : 2,
            "name" : "Lether_Back"
        },
        {
            "mesh" : 3,
            "name" : "Lether_Bottom"
        },
        {
            "children" : [
                0,
                1,
                2,
                3
            ],
            "name" : "Chair_pipe_2_v39"
        },
        {
            "children" : [
                4
            ],
            "name" : "Chair_pipe_2_v39_file",
            "rotation" : [
                0.70710688829422,
                0,
                0,
                0.7071066498756409
            ],
            "scale" : [
                0.009999998845160007,
                0.009999999776482582,
                0.009999999776482582
            ]
        }
    ],
    "materials" : [
        {
            "doubleSided" : true,
            "name" : "F_e5c91a0779744937bd3eb4f6baab0729",
            "pbrMetallicRoughness" : {
                "baseColorFactor" : [
                    0.6000004410743713,
                    0.6000004410743713,
                    0.6000004410743713,
                    1
                ],
                "metallicFactor" : 1,
                "roughnessFactor" : 0.07745970040559769
            }
        },
        {
            "doubleSided" : true,
            "name" : "F_d586d00c16da439da6b7a215a6608c32",
            "pbrMetallicRoughness" : {
                "baseColorFactor" : [
                    0.3500002920627594,
                    0.3500002920627594,
                    0.3500002920627594,
                    1
                ],
                "metallicFactor" : 1,
                "roughnessFactor" : 0.2645750045776367
            }
        },
        {
            "doubleSided" : true,
            "name" : "F_865542d2aeef43cd9aa38fd42fa74e8f_baked",
            "pbrMetallicRoughness" : {
                "baseColorFactor" : [
                    0.800000011920929,
                    0.800000011920929,
                    0.800000011920929,
                    1
                ],
                "metallicFactor" : 0,
                "roughnessFactor" : 0.4000000059604645
            }
        }
    ],
    "meshes" : [
        {
            "name" : "Body304",
            "primitives" : [
                {
                    "attributes" : {
                        "POSITION" : 0,
                        "TEXCOORD_0" : 1,
                        "NORMAL" : 2
                    },
                    "indices" : 3,
                    "material" : 0
                }
            ]
        },
        {
            "name" : "Body678",
            "primitives" : [
                {
                    "attributes" : {
                        "POSITION" : 4,
                        "TEXCOORD_0" : 5,
                        "NORMAL" : 6
                    },
                    "indices" : 7,
                    "material" : 1
                }
            ]
        },
        {
            "name" : "Lether_Back",
            "primitives" : [
                {
                    "attributes" : {
                        "POSITION" : 8,
                        "TEXCOORD_0" : 9,
                        "NORMAL" : 10
                    },
                    "indices" : 11,
                    "material" : 2
                }
            ]
        },
        {
            "name" : "Lether_Bottom",
            "primitives" : [
                {
                    "attributes" : {
                        "POSITION" : 12,
                        "TEXCOORD_0" : 13,
                        "NORMAL" : 14
                    },
                    "indices" : 15,
                    "material" : 2
                }
            ]
        }
    ],
    "accessors" : [
        {
            "bufferView" : 0,
            "componentType" : 5126,
            "count" : 2672,
            "max" : [
                31.510223388671875,
                32.23393630981445,
                0
            ],
            "min" : [
                -32.2112922668457,
                -43.487579345703125,
                -116.25
            ],
            "type" : "VEC3"
        },
        {
            "bufferView" : 1,
            "componentType" : 5126,
            "count" : 2672,
            "type" : "VEC2"
        },
        {
            "bufferView" : 2,
            "componentType" : 5126,
            "count" : 2672,
            "type" : "VEC3"
        },
        {
            "bufferView" : 3,
            "componentType" : 5123,
            "count" : 11880,
            "type" : "SCALAR"
        },
        {
            "bufferView" : 4,
            "componentType" : 5126,
            "count" : 1294,
            "max" : [
                39.1651611328125,
                23.10053825378418,
                -56.81956100463867
            ],
            "min" : [
                -39.1651611328125,
                -34.62586975097656,
                -85.12596130371094
            ],
            "type" : "VEC3"
        },
        {
            "bufferView" : 5,
            "componentType" : 5126,
            "count" : 1294,
            "type" : "VEC2"
        },
        {
            "bufferView" : 6,
            "componentType" : 5126,
            "count" : 1294,
            "type" : "VEC3"
        },
        {
            "bufferView" : 7,
            "componentType" : 5123,
            "count" : 5448,
            "type" : "SCALAR"
        },
        {
            "bufferView" : 8,
            "componentType" : 5126,
            "count" : 1804,
            "max" : [
                31.763078689575195,
                -27.55438804626465,
                -67.875
            ],
            "min" : [
                -32.43566131591797,
                -32.76021194458008,
                -108.375
            ],
            "type" : "VEC3"
        },
        {
            "bufferView" : 9,
            "componentType" : 5126,
            "count" : 1804,
            "type" : "VEC2"
        },
        {
            "bufferView" : 10,
            "componentType" : 5126,
            "count" : 1804,
            "type" : "VEC3"
        },
        {
            "bufferView" : 11,
            "componentType" : 5123,
            "count" : 7500,
            "type" : "SCALAR"
        },
        {
            "bufferView" : 12,
            "componentType" : 5126,
            "count" : 1772,
            "max" : [
                31.763078689575195,
                24.358936309814453,
                -58.724998474121094
            ],
            "min" : [
                -32.43566131591797,
                -23.641063690185547,
                -63.961673736572266
            ],
            "type" : "VEC3"
        },
        {
            "bufferView" : 13,
            "componentType" : 5126,
            "count" : 1772,
            "type" : "VEC2"
        },
        {
            "bufferView" : 14,
            "componentType" : 5126,
            "count" : 1772,
            "type" : "VEC3"
        },
        {
            "bufferView" : 15,
            "componentType" : 5123,
            "count" : 7356,
            "type" : "SCALAR"
        }
    ],
    "bufferViews" : [
        {
            "buffer" : 0,
            "byteLength" : 32064,
            "byteOffset" : 0,
            "target" : 34962
        },
        {
            "buffer" : 0,
            "byteLength" : 21376,
            "byteOffset" : 32064,
            "target" : 34962
        },
        {
            "buffer" : 0,
            "byteLength" : 32064,
            "byteOffset" : 53440,
            "target" : 34962
        },
        {
            "buffer" : 0,
            "byteLength" : 23760,
            "byteOffset" : 85504,
            "target" : 34963
        },
        {
            "buffer" : 0,
            "byteLength" : 15528,
            "byteOffset" : 109264,
            "target" : 34962
        },
        {
            "buffer" : 0,
            "byteLength" : 10352,
            "byteOffset" : 124792,
            "target" : 34962
        },
        {
            "buffer" : 0,
            "byteLength" : 15528,
            "byteOffset" : 135144,
            "target" : 34962
        },
        {
            "buffer" : 0,
            "byteLength" : 10896,
            "byteOffset" : 150672,
            "target" : 34963
        },
        {
            "buffer" : 0,
            "byteLength" : 21648,
            "byteOffset" : 161568,
            "target" : 34962
        },
        {
            "buffer" : 0,
            "byteLength" : 14432,
            "byteOffset" : 183216,
            "target" : 34962
        },
        {
            "buffer" : 0,
            "byteLength" : 21648,
            "byteOffset" : 197648,
            "target" : 34962
        },
        {
            "buffer" : 0,
            "byteLength" : 15000,
            "byteOffset" : 219296,
            "target" : 34963
        },
        {
            "buffer" : 0,
            "byteLength" : 21264,
            "byteOffset" : 234296,
            "target" : 34962
        },
        {
            "buffer" : 0,
            "byteLength" : 14176,
            "byteOffset" : 255560,
            "target" : 34962
        },
        {
            "buffer" : 0,
            "byteLength" : 21264,
            "byteOffset" : 269736,
            "target" : 34962
        },
        {
            "buffer" : 0,
            "byteLength" : 14712,
            "byteOffset" : 291000,
            "target" : 34963
        }
    ],
    "buffers" : [
        {
            "byteLength" : 305712,
            "uri" : "data:application/octet-stream;base64,"
        }
    ]
}
