{
    "asset" : {
        "generator" : "Khronos glTF Blender I/O v3.4.50",
        "version" : "2.0"
    },
    "scene" : 0,
    "scenes" : [
        {
            "name" : "Scene",
            "nodes" : [
                0,
                1,
                2,
                3
            ]
        }
    ],
    "nodes" : [
        {
            "mesh" : 0,
            "name" : "Chair pipe 2 v38",
            "rotation" : [
                0.70710688829422,
                0,
                0,
                0.7071066498756409
            ],
            "scale" : [
                0.0010000000474974513,
                0.0010000000474974513,
                0.0010000000474974513
            ]
        },
        {
            "mesh" : 1,
            "name" : "Chair pipe 2 v38.001",
            "rotation" : [
                0.70710688829422,
                0,
                0,
                0.7071066498756409
            ],
            "scale" : [
                0.0010000000474974513,
                0.0010000000474974513,
                0.0010000000474974513
            ]
        },
        {
            "mesh" : 2,
            "name" : "Chair pipe 2 v38.002",
            "rotation" : [
                0.70710688829422,
                0,
                0,
                0.7071066498756409
            ],
            "scale" : [
                0.0010000000474974513,
                0.0010000000474974513,
                0.0010000000474974513
            ]
        },
        {
            "mesh" : 3,
            "name" : "Chair pipe 2 v38.003",
            "rotation" : [
                0.70710688829422,
                0,
                0,
                0.7071066498756409
            ],
            "scale" : [
                0.0010000000474974513,
                0.0010000000474974513,
                0.0010000000474974513
            ]
        }
    ],
    "materials" : [
        {
            "doubleSided" : true,
            "name" : "Steel",
            "pbrMetallicRoughness" : {}
        },
        {
            "doubleSided" : true,
            "name" : "Leather procedural",
            "pbrMetallicRoughness" : {
                "baseColorFactor" : [
                    0.011087458580732346,
                    0.007524651475250721,
                    0.004954842384904623,
                    1
                ],
                "metallicFactor" : 0
            }
        }
    ],
    "meshes" : [
        {
            "name" : "Chair pipe 2 v38",
            "primitives" : [
                {
                    "attributes" : {
                        "POSITION" : 0,
                        "TEXCOORD_0" : 1,
                        "TEXCOORD_1" : 2,
                        "NORMAL" : 3
                    },
                    "indices" : 4,
                    "material" : 0
                }
            ]
        },
        {
            "name" : "Chair pipe 2 v38.001",
            "primitives" : [
                {
                    "attributes" : {
                        "POSITION" : 5,
                        "TEXCOORD_0" : 6,
                        "TEXCOORD_1" : 7,
                        "NORMAL" : 8
                    },
                    "indices" : 9,
                    "material" : 1
                }
            ]
        },
        {
            "name" : "Chair pipe 2 v38.002",
            "primitives" : [
                {
                    "attributes" : {
                        "POSITION" : 10,
                        "TEXCOORD_0" : 11,
                        "TEXCOORD_1" : 12,
                        "NORMAL" : 13
                    },
                    "indices" : 14,
                    "material" : 1
                }
            ]
        },
        {
            "name" : "Chair pipe 2 v38.003",
            "primitives" : [
                {
                    "attributes" : {
                        "POSITION" : 15,
                        "TEXCOORD_0" : 16,
                        "TEXCOORD_1" : 17,
                        "NORMAL" : 18
                    },
                    "indices" : 19,
                    "material" : 0
                }
            ]
        }
    ],
    "accessors" : [
        {
            "bufferView" : 0,
            "componentType" : 5126,
            "count" : 15552,
            "max" : [
                315.3870849609375,
                322.33935546875,
                0
            ],
            "min" : [
                -322.1129150390625,
                -435.16064453125,
                -1162.5
            ],
            "type" : "VEC3"
        },
        {
            "bufferView" : 1,
            "componentType" : 5126,
            "count" : 15552,
            "type" : "VEC2"
        },
        {
            "bufferView" : 2,
            "componentType" : 5126,
            "count" : 15552,
            "type" : "VEC2"
        },
        {
            "bufferView" : 3,
            "componentType" : 5126,
            "count" : 15552,
            "type" : "VEC3"
        },
        {
            "bufferView" : 4,
            "componentType" : 5123,
            "count" : 15552,
            "type" : "SCALAR"
        },
        {
            "bufferView" : 5,
            "componentType" : 5126,
            "count" : 10659,
            "max" : [
                317.5914001464844,
                243.58937072753906,
                -587.25
            ],
            "min" : [
                -324.3172302246094,
                -236.41062927246094,
                -639.6483764648438
            ],
            "type" : "VEC3"
        },
        {
            "bufferView" : 6,
            "componentType" : 5126,
            "count" : 10659,
            "type" : "VEC2"
        },
        {
            "bufferView" : 7,
            "componentType" : 5126,
            "count" : 10659,
            "type" : "VEC2"
        },
        {
            "bufferView" : 8,
            "componentType" : 5126,
            "count" : 10659,
            "type" : "VEC3"
        },
        {
            "bufferView" : 9,
            "componentType" : 5123,
            "count" : 10860,
            "type" : "SCALAR"
        },
        {
            "bufferView" : 10,
            "componentType" : 5126,
            "count" : 10630,
            "max" : [
                317.5914001464844,
                -275.5122985839844,
                -678.75
            ],
            "min" : [
                -324.3172302246094,
                -327.91064453125,
                -1083.75
            ],
            "type" : "VEC3"
        },
        {
            "bufferView" : 11,
            "componentType" : 5126,
            "count" : 10630,
            "type" : "VEC2"
        },
        {
            "bufferView" : 12,
            "componentType" : 5126,
            "count" : 10630,
            "type" : "VEC2"
        },
        {
            "bufferView" : 13,
            "componentType" : 5126,
            "count" : 10630,
            "type" : "VEC3"
        },
        {
            "bufferView" : 14,
            "componentType" : 5123,
            "count" : 10860,
            "type" : "SCALAR"
        },
        {
            "bufferView" : 15,
            "componentType" : 5126,
            "count" : 6510,
            "max" : [
                391.651611328125,
                231.0814208984375,
                -568.1956176757812
            ],
            "min" : [
                -391.651611328125,
                -346.41064453125,
                -851.2596435546875
            ],
            "type" : "VEC3"
        },
        {
            "bufferView" : 16,
            "componentType" : 5126,
            "count" : 6510,
            "type" : "VEC2"
        },
        {
            "bufferView" : 17,
            "componentType" : 5126,
            "count" : 6510,
            "type" : "VEC2"
        },
        {
            "bufferView" : 18,
            "componentType" : 5126,
            "count" : 6510,
            "type" : "VEC3"
        },
        {
            "bufferView" : 19,
            "componentType" : 5123,
            "count" : 6624,
            "type" : "SCALAR"
        }
    ],
    "bufferViews" : [
        {
            "buffer" : 0,
            "byteLength" : 186624,
            "byteOffset" : 0,
            "target" : 34962
        },
        {
            "buffer" : 0,
            "byteLength" : 124416,
            "byteOffset" : 186624,
            "target" : 34962
        },
        {
            "buffer" : 0,
            "byteLength" : 124416,
            "byteOffset" : 311040,
            "target" : 34962
        },
        {
            "buffer" : 0,
            "byteLength" : 186624,
            "byteOffset" : 435456,
            "target" : 34962
        },
        {
            "buffer" : 0,
            "byteLength" : 31104,
            "byteOffset" : 622080,
            "target" : 34963
        },
        {
            "buffer" : 0,
            "byteLength" : 127908,
            "byteOffset" : 653184,
            "target" : 34962
        },
        {
            "buffer" : 0,
            "byteLength" : 85272,
            "byteOffset" : 781092,
            "target" : 34962
        },
        {
            "buffer" : 0,
            "byteLength" : 85272,
            "byteOffset" : 866364,
            "target" : 34962
        },
        {
            "buffer" : 0,
            "byteLength" : 127908,
            "byteOffset" : 951636,
            "target" : 34962
        },
        {
            "buffer" : 0,
            "byteLength" : 21720,
            "byteOffset" : 1079544,
            "target" : 34963
        },
        {
            "buffer" : 0,
            "byteLength" : 127560,
            "byteOffset" : 1101264,
            "target" : 34962
        },
        {
            "buffer" : 0,
            "byteLength" : 85040,
            "byteOffset" : 1228824,
            "target" : 34962
        },
        {
            "buffer" : 0,
            "byteLength" : 85040,
            "byteOffset" : 1313864,
            "target" : 34962
        },
        {
            "buffer" : 0,
            "byteLength" : 127560,
            "byteOffset" : 1398904,
            "target" : 34962
        },
        {
            "buffer" : 0,
            "byteLength" : 21720,
            "byteOffset" : 1526464,
            "target" : 34963
        },
        {
            "buffer" : 0,
            "byteLength" : 78120,
            "byteOffset" : 1548184,
            "target" : 34962
        },
        {
            "buffer" : 0,
            "byteLength" : 52080,
            "byteOffset" : 1626304,
            "target" : 34962
        },
        {
            "buffer" : 0,
            "byteLength" : 52080,
            "byteOffset" : 1678384,
            "target" : 34962
        },
        {
            "buffer" : 0,
            "byteLength" : 78120,
            "byteOffset" : 1730464,
            "target" : 34962
        },
        {
            "buffer" : 0,
            "byteLength" : 13248,
            "byteOffset" : 1808584,
            "target" : 34963
        }
    ],
    "buffers" : [
        {
            "byteLength" : 1821832,
            "uri" : "data:application/octet-stream;base64,"
        }
    ]
}
